<?xml version="1.0" standalone="no"?>
<!DOCTYPE svg PUBLIC "-//W3C//DTD SVG 20010904//EN"
 "http://www.w3.org/TR/2001/REC-SVG-20010904/DTD/svg10.dtd">
<svg version="1.0" xmlns="http://www.w3.org/2000/svg"
 width="500.000000pt" height="500.000000pt" viewBox="0 0 500.000000 500.000000"
 preserveAspectRatio="xMidYMid meet">
<metadata>
Created by potrace 1.14, written by Peter Selinger 2001-2017
</metadata>
<g transform="translate(0.000000,500.000000) scale(0.100000,-0.100000)"
fill="#000000" stroke="none">
<path d="M812 4441 c-19 -91 -35 -175 -38 -186 -26 -128 -36 -180 -40 -203 -3
-15 -26 -128 -50 -252 -25 -124 -48 -236 -50 -250 -3 -14 -20 -101 -39 -195
-19 -93 -37 -182 -39 -198 -3 -15 -7 -35 -10 -45 -3 -9 -7 -28 -10 -42 -3 -20
-26 -137 -82 -415 -2 -11 -11 -54 -19 -95 -8 -41 -17 -86 -20 -100 -3 -14 -7
-36 -10 -50 -3 -14 -7 -36 -10 -50 -3 -14 -21 -106 -41 -205 -20 -99 -38 -189
-40 -200 -2 -11 -6 -31 -9 -45 -3 -14 -7 -36 -10 -50 -3 -14 -12 -59 -20 -100
-8 -41 -17 -86 -20 -100 -3 -14 -7 -36 -10 -50 -3 -14 -7 -36 -10 -50 -3 -14
-7 -36 -10 -50 -3 -14 -7 -36 -10 -50 -3 -14 -16 -81 -30 -150 -13 -69 -26
-136 -29 -150 -2 -14 -20 -104 -40 -200 -19 -96 -38 -190 -41 -209 -3 -19 -7
-37 -9 -40 -2 -3 -7 -22 -10 -41 -3 -19 -17 -91 -31 -160 -14 -69 -25 -126
-25 -128 0 -1 266 -1 592 0 l591 3 43 215 c24 118 45 229 48 246 3 17 8 37 10
45 3 8 7 30 10 50 3 20 8 42 10 50 3 8 7 30 10 49 3 19 14 76 25 125 11 50 22
108 26 130 12 81 25 111 62 144 37 32 137 122 253 226 31 28 98 88 149 135 52
47 98 85 103 85 6 0 38 -44 71 -97 34 -54 118 -185 187 -293 69 -107 136 -213
150 -235 120 -192 551 -864 559 -873 4 -4 307 -6 673 -5 l666 3 -83 135 c-46
74 -110 177 -142 228 -32 51 -62 101 -68 110 -5 10 -53 86 -105 170 -52 84
-102 164 -110 177 -39 64 -436 703 -451 725 -9 14 -65 104 -125 200 -59 96
-157 253 -216 348 -60 96 -108 177 -106 182 2 4 32 34 68 65 36 32 103 92 149
134 46 42 93 84 105 94 33 29 96 85 226 201 19 17 80 72 135 121 55 49 118
106 140 126 43 38 139 125 196 174 77 69 347 311 394 354 28 25 87 78 130 116
44 39 107 95 140 125 33 30 94 84 134 120 41 36 86 76 101 90 14 14 76 69 138
124 62 54 112 100 112 101 0 2 -317 3 -704 3 l-704 1 -30 -27 c-70 -63 -186
-168 -196 -177 -6 -6 -83 -76 -171 -155 -167 -150 -216 -195 -270 -245 -18
-16 -70 -64 -116 -105 -46 -41 -86 -77 -89 -80 -3 -3 -48 -43 -100 -90 -52
-47 -104 -94 -116 -105 -25 -24 -171 -156 -201 -182 -27 -24 -182 -164 -263
-238 -36 -33 -105 -96 -154 -140 -49 -44 -112 -101 -140 -127 -28 -26 -54 -48
-57 -48 -3 0 2 37 12 83 10 45 21 96 23 112 5 27 26 135 41 205 11 54 25 126
29 150 2 14 7 36 10 50 3 14 8 36 10 50 3 14 29 149 60 300 30 151 57 286 60
300 2 14 7 36 10 50 3 14 8 36 10 50 4 26 63 321 70 352 4 16 -35 17 -588 16
l-591 0 -33 -167z"/>
</g>
</svg>
